<?xml version="1.0" encoding="UTF-8"?>
<svg version="1.1" xmlns="http://www.w3.org/2000/svg" width="514" height="232">
<path d="M0 0 C0.89168884 -0.00990463 1.78337769 -0.01980927 2.7020874 -0.03001404 C3.67776672 -0.02551239 4.65344604 -0.02101074 5.65869141 -0.01637268 C7.20293793 -0.02666756 7.20293793 -0.02666756 8.77838135 -0.03717041 C12.18914491 -0.05550614 15.59945153 -0.05159149 19.01025391 -0.0459137 C21.37532706 -0.05047194 23.74039887 -0.05577643 26.10546875 -0.0617981 C31.06532162 -0.07074232 36.02501359 -0.06829074 40.98486328 -0.05836487 C47.35086612 -0.04686838 53.71631486 -0.06709101 60.08224487 -0.09628201 C64.96691433 -0.11459862 69.85144986 -0.11436068 74.73614502 -0.10864449 C77.08376849 -0.10849074 79.43140075 -0.11457849 81.7789917 -0.12693596 C85.05695716 -0.14175972 88.33388418 -0.13123209 91.61181641 -0.11402893 C92.58749573 -0.1236969 93.56317505 -0.13336487 94.56842041 -0.14332581 C95.46010925 -0.13349167 96.3517981 -0.12365753 97.27050781 -0.11352539 C98.04552643 -0.11331611 98.82054504 -0.11310682 99.61904907 -0.1128912 C101.63525391 0.38768005 101.63525391 0.38768005 103.38466167 2.22411156 C105.154766 5.28645422 105.00937791 7.69640546 105.00756836 11.21995544 C105.01121902 11.89847061 105.01486969 12.57698578 105.01863098 13.27606201 C105.0267191 15.51274353 105.01314304 17.74869666 104.99853516 19.9853363 C104.9980164 21.54184977 104.99853471 23.09836389 105.00004578 24.65487671 C104.99995614 27.91397404 104.98954234 31.17282358 104.97143555 34.43186951 C104.94872969 38.61066342 104.94820851 42.78909596 104.95495319 46.96793461 C104.95829317 50.18067643 104.95166288 53.39333576 104.94182396 56.60606194 C104.93797358 58.14704901 104.93682308 59.68804526 104.93840981 61.22903633 C104.93878036 63.38113553 104.92616429 65.5327698 104.90991211 67.68479919 C104.90300102 69.52202293 104.90300102 69.52202293 104.89595032 71.3963623 C104.63525391 74.38768005 104.63525391 74.38768005 102.63525391 77.38768005 C100.68965816 77.75961685 100.68965816 77.75961685 98.26341248 77.75517273 C97.34496552 77.76074188 96.42651855 77.76631104 95.48023987 77.77204895 C94.46977097 77.76283417 93.45930206 77.75361938 92.41821289 77.74412537 C90.82547546 77.74719193 90.82547546 77.74719193 89.20056152 77.75032043 C85.67731726 77.75333799 82.15453658 77.734823 78.63134766 77.71580505 C76.19279598 77.71274927 73.75424256 77.71087178 71.31568909 77.71012878 C66.20021914 77.70551971 61.0849061 77.69106964 55.96948242 77.66893005 C49.3960543 77.64063229 42.82274987 77.62971781 36.24926662 77.62524796 C31.21286265 77.62110096 26.17648396 77.61128977 21.14009285 77.59937286 C18.71546699 77.59365597 16.29083866 77.588902 13.86620903 77.5851059 C10.48506217 77.57826847 7.10401554 77.56464849 3.72290039 77.54881287 C2.20416069 77.54713608 2.20416069 77.54713608 0.65473938 77.54542542 C-0.26088776 77.53971527 -1.17651489 77.53400513 -2.11988831 77.52812195 C-2.92017236 77.52514729 -3.72045641 77.52217262 -4.54499149 77.51910782 C-6.36474609 77.38768005 -6.36474609 77.38768005 -7.36474609 76.38768005 C-7.47497194 74.13403804 -7.51389506 71.87689437 -7.52587891 69.62059021 C-7.53084381 68.91325241 -7.53580872 68.20591461 -7.54092407 67.47714233 C-7.55558097 65.12699933 -7.56235369 62.77692383 -7.56787109 60.42674255 C-7.57361988 58.79868059 -7.57937765 57.17061866 -7.58514404 55.54255676 C-7.59566424 52.12439151 -7.60150014 48.70624985 -7.60498047 45.28807068 C-7.61046574 40.90401657 -7.63448997 36.52027298 -7.66295242 32.1363163 C-7.68155972 28.77175481 -7.68678339 25.40726836 -7.68831635 22.04265976 C-7.69134801 20.42629169 -7.6993938 18.8099251 -7.71250153 17.19360733 C-7.72952188 14.93334988 -7.72769198 12.67385417 -7.72119141 10.41355896 C-7.72483704 9.12639984 -7.72848267 7.83924072 -7.73223877 6.51307678 C-7.36474609 3.38768005 -7.36474609 3.38768005 -6.11457443 1.71657276 C-3.91780606 0.04825513 -2.74042292 0.00859198 0 0 Z M40.63525391 23.38768005 C39.30638356 24.49035711 39.30638356 24.49035711 39.52172852 27.25511169 C39.52696533 28.50671082 39.53220215 29.75830994 39.53759766 31.0478363 C39.5390126 31.7123027 39.54042755 32.3767691 39.54188538 33.06137085 C39.54749872 35.19101904 39.56005337 37.32056345 39.57275391 39.45018005 C39.57776719 40.89093375 39.5823304 42.33168908 39.58642578 43.77244568 C39.59747246 47.31089107 39.61474599 50.84927544 39.63525391 54.38768005 C43.5555833 53.82676672 46.047013 52.71141347 49.27978516 50.4462738 C50.12089844 49.86297302 50.96201172 49.27967224 51.82861328 48.67869568 C52.69292969 48.06703552 53.55724609 47.45537537 54.44775391 46.82518005 C55.77323242 45.90188904 55.77323242 45.90188904 57.12548828 44.95994568 C59.30069548 43.44317958 61.47025204 41.91896089 63.63525391 40.38768005 C62.32075064 37.33972602 61.14447361 35.72854446 58.36962891 33.9150238 C57.72638672 33.49027771 57.08314453 33.06553162 56.42041016 32.62791443 C55.74880859 32.19801208 55.07720703 31.76810974 54.38525391 31.32518005 C53.72912109 30.89141052 53.07298828 30.45764099 52.39697266 30.01072693 C48.59007493 27.52451241 44.75222262 25.33748666 40.63525391 23.38768005 Z " fill="#FEFCFC" transform="translate(88.36474609375,58.61231994628906)"/>
<path d="M0 0 C0.515625 0.2475 1.03125 0.495 1.5625 0.75 C1.5625 2.73 1.5625 4.71 1.5625 6.75 C2.6453125 5.76 2.6453125 5.76 3.75 4.75 C6.5625 2.75 6.5625 2.75 9.125 2.25 C12.29504965 2.90026659 13.5100612 4.31747995 15.5625 6.75 C16.5525 5.96625 17.5425 5.1825 18.5625 4.375 C22.4584723 1.57626071 25.8515651 0.56223015 30.5625 -0.25 C31.5625 0.75 31.5625 0.75 31.66015625 4.56640625 C31.65348089 6.14846682 31.64151875 7.73051159 31.625 9.3125 C31.62048828 10.11880859 31.61597656 10.92511719 31.61132812 11.75585938 C31.59950518 13.75393756 31.58156914 15.75197783 31.5625 17.75 C32.531875 17.564375 33.50125 17.37875 34.5 17.1875 C36.0159375 16.9709375 36.0159375 16.9709375 37.5625 16.75 C37.8925 17.08 38.2225 17.41 38.5625 17.75 C38.32755195 23.62370113 36.67653589 27.63596411 32.5625 31.75 C29.5625 33.375 29.5625 33.375 26.5625 33.75 C22.99532816 32.42268025 21.79239317 31.12768164 19.8125 27.875 C18.71250814 25.12502036 17.992012 22.67068161 17.5625 19.75 C17.32466797 20.65492187 17.32466797 20.65492187 17.08203125 21.578125 C15.95041494 25.45437976 15.04534034 28.21351073 12.3125 31.25 C9.03861195 33.03575712 6.25869203 33.46010259 2.5625 33.75 C1.39549365 30.83248413 1.60782625 29.59286899 2.5 26.5 C3.69266578 22.29059137 3.71491356 19.09378647 3.5625 14.75 C0.46915162 17.84334838 0.80910131 21.5719844 0.3203125 25.8046875 C-0.73866641 29.92051274 -2.84029118 31.6151411 -6.21875 34.015625 C-9.65521688 35.9837833 -11.39389763 36.75 -15.4375 36.75 C-15.1075 35.55375 -14.7775 34.3575 -14.4375 33.125 C-12.85907176 26.07244829 -12.4444071 18.05746429 -14.07421875 10.98828125 C-14.25404297 9.88033203 -14.25404297 9.88033203 -14.4375 8.75 C-11.19572623 4.59647735 -5.60763774 -0.57514233 0 0 Z " fill="#FCF2F1" transform="translate(226.4375,95.25)"/>
<path d="M0 0 C1.33777596 -0.20162 2.67122856 -0.43321353 4 -0.6875 C7.30739005 -1.17424797 7.80853312 -1.11238273 10.875 0.6875 C14.93710723 5.10802845 15.4016003 8.61426814 15.23828125 14.4765625 C14.56457548 21.61121701 11.09807055 25.25001962 5.83984375 29.6171875 C2.46049152 32.15708281 0.17983716 32.09086603 -4 32 C-4.061875 32.825 -4.12375 33.65 -4.1875 34.5 C-5.43475662 39.87279775 -8.10633672 44.16372045 -12.0625 48 C-14 49 -14 49 -18 49 C-17.85761163 46.95809019 -17.71092972 44.91647955 -17.5625 42.875 C-17.48128906 41.73804688 -17.40007812 40.60109375 -17.31640625 39.4296875 C-17 36 -17 36 -16.47314453 33.15527344 C-16.00444358 30.02963301 -15.97507254 27.23832689 -16.11328125 24.0859375 C-16.14357422 22.99539062 -16.17386719 21.90484375 -16.20507812 20.78125 C-16.27696082 18.50191517 -16.3682576 16.22311354 -16.47851562 13.9453125 C-16.5462022 10.85734101 -16.55423855 8.03951227 -16 5 C-13.140625 2.30859375 -13.140625 2.30859375 -10 1 C-9.154375 0.566875 -8.30875 0.13375 -7.4375 -0.3125 C-4.51751838 -1.13608456 -2.95048384 -0.61754313 0 0 Z M-2 10 C-4.19666303 11.77966683 -4.19666303 11.77966683 -4.23046875 14.09375 C-4.21628906 14.8878125 -4.20210938 15.681875 -4.1875 16.5 C-4.18105469 17.2940625 -4.17460937 18.088125 -4.16796875 18.90625 C-4.12675836 21.05836391 -4.12675836 21.05836391 -3 23 C-0.69 23 1.62 23 4 23 C4.74926071 19.33694766 5.2380014 16.57644848 4 13 C3.34 13 2.68 13 2 13 C1.67 12.01 1.34 11.02 1 10 C0.01 10 -0.98 10 -2 10 Z " fill="#FCF1F2" transform="translate(381,97)"/>
<path d="M0 0 C1.37310707 1.29233607 2.71034824 2.62437146 4 4 C7.67417585 5.01559865 11.13993305 5.10753284 14.93603516 5.06591797 C16.10719879 5.05615936 17.27836243 5.04640076 18.48501587 5.03634644 C19.74035126 5.02177399 20.99568665 5.00720154 22.2890625 4.9921875 C24.26794898 4.97915667 26.24683577 4.9661433 28.22572899 4.95417976 C33.09754916 4.92367318 37.96921232 4.88340598 42.84082031 4.82861328 C45.57954629 4.7982751 48.31811631 4.7758648 51.05697632 4.76223755 C53.63570221 4.74904647 56.2143994 4.72388518 58.7928772 4.6857605 C59.95773651 4.68230621 61.12259583 4.67885193 62.32275391 4.67529297 C63.86233261 4.66077591 63.86233261 4.66077591 65.43301392 4.64596558 C68.35430082 5.04886458 69.22493886 5.70639868 71 8 C70.1875 9.9375 70.1875 9.9375 69 12 C65.77274346 13.07575218 63.54512353 13.08957133 60.1550293 13.03417969 C58.35251961 13.0098587 58.35251961 13.0098587 56.51359558 12.98504639 C55.21360123 12.96419983 53.91360687 12.94335327 52.57421875 12.921875 C50.53369437 12.89983684 48.49315518 12.88134378 46.45259571 12.86287308 C41.41804803 12.81717732 36.38388084 12.76432237 31.34985352 12.67773438 C27.84506947 12.6181683 24.34078054 12.58332457 20.83555031 12.56455231 C18.85787926 12.54717084 16.88049683 12.50339626 14.90324402 12.45916748 C7.57253559 12.22849563 7.57253559 12.22849563 1.29614258 15.46582031 C0.53841553 16.30209961 -0.21931152 17.13837891 -1 18 C-3.5625 19 -3.5625 19 -6 19 C-10.08139704 17.0564776 -13.24987115 14.98248339 -14.875 10.6875 C-15.0473821 6.98128482 -14.01328893 5.08704302 -12 2 C-7.97007734 -1.47021118 -5.04169441 -1.37500757 0 0 Z " fill="#FCDFDD" transform="translate(122,145)"/>
<path d="M0 0 C3.58171981 2.04669703 5.65990754 4.09139698 7 8 C8.96058735 15.54072056 6.78434833 21.83422071 3.0625 28.4375 C-0.09707325 32.3630304 -1.7861857 33.69654642 -6.75 34.9375 C-11.51157785 35.3727935 -15.21660701 33.84549305 -19 31 C-22.62295798 27.28695071 -23.56869166 24.85753797 -23.5625 19.6875 C-23.316586 12.43303704 -21.37179659 8.5732286 -16.49609375 3.40625 C-11.62361047 -0.82048248 -6.20132228 -1.0447359 0 0 Z M-10 9 C-12.3277217 13.61495031 -12.3277217 13.61495031 -13 18.625 C-11.60316953 21.94247237 -9.80921274 23.77876202 -7 26 C-4.72476911 25.95502158 -4.72476911 25.95502158 -3 25 C-1.66145037 19.64580149 -2.36713237 16.1564241 -4 11 C-4.66 10.34 -5.32 9.68 -6 9 C-7.32 9 -8.64 9 -10 9 Z " fill="#FCEFEE" transform="translate(291,94)"/>
<path d="M0 0 C-1.05142326 3.46969675 -2.20509948 5.21442219 -4.75 7.875 C-7.88392917 11.32763384 -9.35862712 15.11898931 -10.9375 19.4375 C-13.75980387 27.05501655 -17.25106035 32.18829526 -23.75 37.0625 C-26 38 -26 38 -29 37 C-29.78369141 35.26586914 -29.78369141 35.26586914 -30.3515625 33.03515625 C-30.56296875 32.23529297 -30.774375 31.43542969 -30.9921875 30.61132812 C-31.20101563 29.77021484 -31.40984375 28.92910156 -31.625 28.0625 C-32.0531713 26.40715916 -32.48279165 24.75219226 -32.9140625 23.09765625 C-33.0992041 22.36039307 -33.2843457 21.62312988 -33.47509766 20.86352539 C-33.95673722 18.92988837 -33.95673722 18.92988837 -35 17 C-36.98 17 -38.96 17 -41 17 C-41.32421875 14.8046875 -41.32421875 14.8046875 -41 12 C-38.76953125 9.5078125 -38.76953125 9.5078125 -35.8125 7.125 C-34.84957031 6.32320313 -33.88664062 5.52140625 -32.89453125 4.6953125 C-30 3 -30 3 -27.28125 2.89453125 C-25 4 -25 4 -23.63671875 6.50390625 C-23.32347656 7.51324219 -23.01023437 8.52257812 -22.6875 9.5625 C-22.19830078 11.08037109 -22.19830078 11.08037109 -21.69921875 12.62890625 C-21.46847656 13.41136719 -21.23773438 14.19382812 -21 15 C-17.95556726 12.13465154 -15.46090751 9.30491259 -13.0625 5.875 C-9.78212326 1.41402495 -5.77675458 -2.44401155 0 0 Z " fill="#FCF1F1" transform="translate(341,91)"/>
<path d="M0 0 C-0.57352893 3.87132028 -2.48704352 6.08172796 -5 9 C-3.37326706 11.99661331 -1.89290857 14.09944204 0.625 16.4375 C3.407089 19.43922761 4 20.9327818 4 25 C2.64365406 29.27770643 0.04516483 30.7339992 -3.75 32.75 C-7.91852562 34.68799875 -11.41075339 35.80878139 -16 36 C-16.66 35.67 -17.32 35.34 -18 35 C-17.8125 32.75 -17.8125 32.75 -17 30 C-16.154375 29.34 -15.30875 28.68 -14.4375 28 C-11.8275482 26.24338461 -11.8275482 26.24338461 -11.3125 23.625 C-12.08625998 20.67064373 -12.78680102 20.10163377 -15 18.125 C-17.64188171 15.68971094 -17.96388837 15.20583629 -18.625 11.4375 C-17.86465352 7.25559435 -17.19800031 5.81728598 -14 3 C-4.91690124 -1.75278424 -4.91690124 -1.75278424 0 0 Z " fill="#FCEFF0" transform="translate(417,95)"/>
<path d="M0 0 C0.33 0.99 0.66 1.98 1 3 C0.67 3.66 0.34 4.32 0 5 C-0.07033769 6.87379605 -0.0843022 8.75001102 -0.0625 10.625 C-0.041875 12.39875 -0.02125 14.1725 0 16 C3.3 14.68 6.6 13.36 10 12 C9.88534472 18.42069586 8.41851126 21.60224647 3.96875 26.234375 C0.39679373 29.4377961 -2.93985695 31.72531426 -7.8125 32.375 C-10 32 -10 32 -12 30 C-12.4140625 27.828125 -12.4140625 27.828125 -12.625 25.25 C-12.69847656 24.36054687 -12.77195312 23.47109375 -12.84765625 22.5546875 C-13.01806159 19.69712107 -13.07531135 16.86183143 -13 14 C-14.32 13.34 -15.64 12.68 -17 12 C-15.67915553 6.38641099 -11.56312373 4.00405646 -7 1 C-4.53721199 -0.231394 -2.7204945 -0.07159196 0 0 Z " fill="#FDF7F7" transform="translate(354,97)"/>
<path d="M0 0 C1.34403648 -0.00618599 1.34403648 -0.00618599 2.71522522 -0.01249695 C3.69561768 -0.00171112 4.67601013 0.00907471 5.68611145 0.02018738 C7.23758629 0.01953026 7.23758629 0.01953026 8.82040405 0.01885986 C12.24563856 0.02095304 15.67038608 0.04430953 19.09553528 0.0677948 C21.46779106 0.07338886 23.84005031 0.07765985 26.21231079 0.08065796 C32.46118205 0.09212164 38.70984469 0.12160212 44.95863342 0.1547699 C51.3330147 0.18543786 57.70742964 0.1991563 64.0818634 0.21427917 C76.59302021 0.24647018 89.10403228 0.29710978 101.61506653 0.36076355 C102.11006653 1.35076355 102.11006653 1.35076355 102.61506653 2.36076355 C66.97506653 2.36076355 31.33506653 2.36076355 -5.38493347 2.36076355 C-5.05493347 26.45076355 -4.72493347 50.54076355 -4.38493347 75.36076355 C30.92506653 75.69076355 66.23506653 76.02076355 102.61506653 76.36076355 C102.61506653 76.69076355 102.61506653 77.02076355 102.61506653 77.36076355 C88.42050611 77.38409384 74.22594866 77.40167695 60.03137302 77.41257572 C53.44101867 77.41780527 46.85067716 77.42490422 40.2603302 77.436203 C33.90614635 77.44702933 27.55197488 77.45303984 21.19778252 77.45564079 C18.76757042 77.4574955 16.33735903 77.46111698 13.90715218 77.46649361 C10.51623671 77.47370066 7.12537312 77.47475463 3.73445129 77.47428894 C2.71881607 77.47788422 1.70318085 77.48147949 0.6567688 77.48518372 C-0.26174866 77.48380905 -1.18026611 77.48243439 -2.12661743 77.48101807 C-2.92949912 77.48193986 -3.73238081 77.48286165 -4.55959225 77.48381138 C-6.38493347 77.36076355 -6.38493347 77.36076355 -7.38493347 76.36076355 C-7.49515932 74.10712153 -7.53408244 71.84997787 -7.54606628 69.59367371 C-7.55103119 68.88633591 -7.55599609 68.17899811 -7.56111145 67.45022583 C-7.57576835 65.10008283 -7.58254107 62.75000733 -7.58805847 60.39982605 C-7.59380726 58.77176409 -7.59956502 57.14370216 -7.60533142 55.51564026 C-7.61585162 52.09747501 -7.62168752 48.67933335 -7.62516785 45.26115417 C-7.63065312 40.87710007 -7.65467735 36.49335648 -7.6831398 32.1093998 C-7.7017471 28.74483831 -7.70697076 25.38035186 -7.70850372 22.01574326 C-7.71153539 20.39937518 -7.71958118 18.78300859 -7.7326889 17.16669083 C-7.74970926 14.90643337 -7.74787936 12.64693766 -7.74137878 10.38664246 C-7.74502441 9.09948334 -7.74867004 7.81232422 -7.75242615 6.48616028 C-7.38493347 3.36076355 -7.38493347 3.36076355 -6.13602352 1.68797398 C-3.92890087 0.015121 -2.75119818 -0.00976757 0 0 Z " fill="#F5BBB2" transform="translate(88.38493347167969,58.63923645019531)"/>
<path d="M0 0 C0.84175781 -0.00128906 1.68351562 -0.00257813 2.55078125 -0.00390625 C3.87142578 0.00189453 3.87142578 0.00189453 5.21875 0.0078125 C6.09917969 0.00394531 6.97960937 0.00007812 7.88671875 -0.00390625 C9.14935547 -0.00197266 9.14935547 -0.00197266 10.4375 0 C11.21029297 0.00112793 11.98308594 0.00225586 12.77929688 0.00341797 C14.71875 0.1328125 14.71875 0.1328125 16.71875 1.1328125 C16.71875 2.7828125 16.71875 4.4328125 16.71875 6.1328125 C12.37155592 8.28083781 8.34833209 8.43477515 3.59375 8.3828125 C2.52060547 8.39441406 2.52060547 8.39441406 1.42578125 8.40625 C-2.34600618 8.39214986 -4.07006279 8.27360397 -7.28125 6.1328125 C-6.90625 3.6953125 -6.90625 3.6953125 -6.28125 1.1328125 C-3.95781444 -0.02890528 -2.58491684 0.00377281 0 0 Z " fill="#FBE1DE" transform="translate(88.28125,149.8671875)"/>
<path d="M0 0 C1.16370612 3.49111836 0.590088 4.76751685 -0.90625 8.0234375 C-3.34244522 12.42599029 -6.44619936 16.44619936 -10 20 C-10.99 20 -11.98 20 -13 20 C-12.91621094 19.24074219 -12.83242188 18.48148438 -12.74609375 17.69921875 C-12.64425781 16.70535156 -12.54242188 15.71148437 -12.4375 14.6875 C-12.33308594 13.70136719 -12.22867187 12.71523437 -12.12109375 11.69921875 C-11.83397473 8.90069653 -11.83397473 8.90069653 -13 6 C-11.78294994 4.98528829 -10.55073116 3.9887539 -9.3125 3 C-8.62800781 2.443125 -7.94351562 1.88625 -7.23828125 1.3125 C-4.61216944 -0.22741897 -2.99396644 -0.25168194 0 0 Z " fill="#FDF8F8" transform="translate(357,77)"/>
<path d="M0 0 C4.01987409 1.00496852 6.31834573 2.31558351 9.75 4.5625 C11.22726563 5.52349609 11.22726563 5.52349609 12.734375 6.50390625 C13.85585937 7.24447266 13.85585937 7.24447266 15 8 C13.64649404 12.06051787 11.72487336 12.64228453 8.0625 14.75 C6.98097656 15.38421875 5.89945313 16.0184375 4.78515625 16.671875 C3.40650391 17.32929687 3.40650391 17.32929687 2 18 C1.34 17.67 0.68 17.34 0 17 C0 11.39 0 5.78 0 0 Z " fill="#FBE1DE" transform="translate(131,89)"/>
<path d="M0 0 C0.33 0 0.66 0 1 0 C1.33 3.63 1.66 7.26 2 11 C5.3 9.68 8.6 8.36 12 7 C11.66290194 13.51722911 10.55774263 16.32539218 6 21 C5.01879536 17.94736336 5.01879536 16.05263664 6 13 C5.195625 13.020625 4.39125 13.04125 3.5625 13.0625 C1 13 1 13 0 12 C-0.07244053 9.98035801 -0.08377188 7.95832876 -0.0625 5.9375 C-0.05347656 4.83277344 -0.04445313 3.72804688 -0.03515625 2.58984375 C-0.02355469 1.73519531 -0.01195312 0.88054687 0 0 Z " fill="#FAD2D4" transform="translate(352,102)"/>
<path d="M0 0 C0.33 0.99 0.66 1.98 1 3 C0.34 3.66 -0.32 4.32 -1 5 C-1 3.68 -1 2.36 -1 1 C-1.928125 1.474375 -2.85625 1.94875 -3.8125 2.4375 C-7 4 -7 4 -10 5 C-11.21869929 7.50447516 -11.21869929 7.50447516 -12 10 C-11.67 10.33 -11.34 10.66 -11 11 C-10.92755947 13.01964199 -10.91622812 15.04167124 -10.9375 17.0625 C-10.94652344 18.16722656 -10.95554687 19.27195312 -10.96484375 20.41015625 C-10.97644531 21.26480469 -10.98804688 22.11945313 -11 23 C-13.29013653 19.5647952 -13.17842973 18.014669 -13 14 C-14.32 13.34 -15.64 12.68 -17 12 C-15.67915553 6.38641099 -11.56312373 4.00405646 -7 1 C-4.53721199 -0.231394 -2.7204945 -0.07159196 0 0 Z " fill="#FDD4D6" transform="translate(354,97)"/>
<path d="M0 0 C-1.35021826 4.41889613 -3.26115668 6.34345343 -7 9 C-7.33 7.68 -7.66 6.36 -8 5 C-9.175625 6.2375 -9.175625 6.2375 -10.375 7.5 C-13 10 -13 10 -15 10 C-13.56179187 4.96627156 -11.09754485 3.01044111 -7 0 C-3.86650268 -1.04449911 -3.01031744 -0.93423645 0 0 Z " fill="#FCE8E8" transform="translate(341,91)"/>
<path d="M0 0 C1.32 0 2.64 0 4 0 C3.67 0.99 3.34 1.98 3 3 C2.84854901 5.2825699 2.75113021 7.56887706 2.68359375 9.85546875 C2.66281265 10.51710526 2.64203156 11.17874176 2.62062073 11.86042786 C2.55535273 13.96934852 2.49634656 16.07839135 2.4375 18.1875 C2.39429311 19.61915315 2.35067812 21.05079404 2.30664062 22.48242188 C2.19969494 25.98815154 2.09836359 29.49401786 2 33 C1.34 32.67 0.68 32.34 0 32 C0 21.44 0 10.88 0 0 Z " fill="#F4BEB6" transform="translate(126,80)"/>
<path d="M0 0 C2.6875 2 2.6875 2 4 4 C3.43152344 3.855625 2.86304688 3.71125 2.27734375 3.5625 C-2.62262205 2.38454495 -6.9645312 1.78572473 -12 2 C-12.226875 2.556875 -12.45375 3.11375 -12.6875 3.6875 C-14.37550036 6.66159588 -16.46676517 8.72008865 -19 11 C-19.66 11 -20.32 11 -21 11 C-19.89206589 6.29128004 -17.2402568 3.87450527 -13.42578125 1.17578125 C-9.05620014 -0.94216386 -4.71153174 -0.92264345 0 0 Z " fill="#FBD8D6" transform="translate(291,94)"/>
<path d="M0 0 C0.66 0.33 1.32 0.66 2 1 C0.576875 1.37125 0.576875 1.37125 -0.875 1.75 C-4.04752735 2.68043024 -4.04752735 2.68043024 -5.3125 4.9375 C-5.539375 5.618125 -5.76625 6.29875 -6 7 C-6.33 7.99 -6.66 8.98 -7 10 C-7.06999287 11.56889017 -7.08438993 13.14063937 -7.0625 14.7109375 C-7.05476563 15.62617187 -7.04703125 16.54140625 -7.0390625 17.484375 C-7.01312639 19.40364726 -6.98708558 21.32291811 -6.9609375 23.2421875 C-6.95320313 24.16 -6.94546875 25.0778125 -6.9375 26.0234375 C-6.92589844 26.85794434 -6.91429687 27.69245117 -6.90234375 28.55224609 C-7.00505316 31.12665742 -7.43129996 33.49066707 -8 36 C-8.33 36 -8.66 36 -9 36 C-9.14857681 31.65850945 -9.25731436 27.31837268 -9.32958984 22.97509766 C-9.35972248 21.49859844 -9.40063879 20.02227768 -9.45263672 18.54638672 C-9.52562629 16.42110221 -9.55948491 14.29818607 -9.5859375 12.171875 C-9.6173584 10.8940918 -9.6487793 9.61630859 -9.68115234 8.29980469 C-9 5 -9 5 -6.15087891 2.61425781 C-3 1 -3 1 0 0 Z " fill="#FBD2D6" transform="translate(374,97)"/>
<path d="M0 0 C0.33 0 0.66 0 1 0 C1.92870422 4.7098571 2.15180442 9.27791031 2.125 14.0625 C2.12886719 14.75666016 2.13273438 15.45082031 2.13671875 16.16601562 C2.12962033 19.90333371 1.89228903 23.36710894 1 27 C1.99 27.33 2.98 27.66 4 28 C3.34 28.66 2.68 29.32 2 30 C0.68 30 -0.64 30 -2 30 C-1.67 28.80375 -1.34 27.6075 -1 26.375 C0.59069157 19.26765471 0.89380374 11.35349306 -0.57421875 4.203125 C-1 2 -1 2 0 0 Z " fill="#F9B6B4" transform="translate(213,102)"/>
<path d="M0 0 C0.33 0.99 0.66 1.98 1 3 C8.26 3.33 15.52 3.66 23 4 C18.69803493 6.15098253 15.59555511 6.30031203 10.9375 6.25 C10.21755859 6.25773438 9.49761719 6.26546875 8.75585938 6.2734375 C4.97065637 6.25937918 3.22139535 6.1475969 0 4 C0 2.68 0 1.36 0 0 Z " fill="#F9ADA8" transform="translate(81,152)"/>
<path d="M0 0 C2 2 2 2 2.1953125 4.6015625 C2.17210937 5.59929687 2.14890625 6.59703125 2.125 7.625 C2.10695313 8.62789062 2.08890625 9.63078125 2.0703125 10.6640625 C2.03550781 11.82035156 2.03550781 11.82035156 2 13 C1.34 13 0.68 13 0 13 C-0.33 13.66 -0.66 14.32 -1 15 C-3.01920337 13.69593116 -5.01924973 12.36176581 -7 11 C-7 10.67 -7 10.34 -7 10 C-4.69 10 -2.38 10 0 10 C0 6.7 0 3.4 0 0 Z " fill="#FACDD0" transform="translate(385,110)"/>
<path d="M0 0 C-0.33 0.99 -0.66 1.98 -1 3 C-1 2.34 -1 1.68 -1 1 C-2.29409592 1.45142881 -3.58521059 1.91141021 -4.875 2.375 C-5.59429687 2.63023438 -6.31359375 2.88546875 -7.0546875 3.1484375 C-9.18157994 3.93877783 -9.18157994 3.93877783 -11 6 C-11.66 6 -12.32 6 -13 6 C-14.33783393 6.31478446 -15.67203709 6.64587656 -17 7 C-12.55186844 1.85684788 -7.00786241 -2.27872586 0 0 Z " fill="#F9D1D4" transform="translate(417,95)"/>
<path d="M0 0 C2.375 0.3125 2.375 0.3125 5 1 C7 4 7 4 6.8125 7.0625 C6 10 6 10 3 12 C0.8125 11.625 0.8125 11.625 -1 11 C0.98 9.68 2.96 8.36 5 7 C3.70700306 4.11562221 2.34058637 2.12780579 0 0 Z " fill="#F7CAC5" transform="translate(146,92)"/>
<path d="M0 0 C2.33333333 0 4.66666667 0 7 0 C5.71700242 2.86207152 4.469364 5.0245088 2 7 C1.01 7 0.02 7 -1 7 C-0.67 4.69 -0.34 2.38 0 0 Z " fill="#FAD6D4" transform="translate(345,90)"/>
<path d="M0 0 C1.40253926 4.20761779 -0.09397469 6.11735584 -2 10 C-2.66 10.66 -3.32 11.32 -4 12 C-3.67 9.03 -3.34 6.06 -3 3 C-4.65 3 -6.3 3 -8 3 C-5.53387212 -0.1151089 -3.89156016 -0.31553191 0 0 Z " fill="#F9C8CA" transform="translate(357,77)"/>
<path d="M0 0 C0.66 0.33 1.32 0.66 2 1 C1.34 1.66 0.68 2.32 0 3 C-0.24315656 5.66949409 -0.24315656 5.66949409 -0.125 8.625 C-0.10695313 9.62789062 -0.08890625 10.63078125 -0.0703125 11.6640625 C-0.04710938 12.43492187 -0.02390625 13.20578125 0 14 C-3 12 -3 12 -3.875 9.75 C-4.0399211 6.12173571 -2.82415247 4.08702725 -1 1 C-0.67 0.67 -0.34 0.34 0 0 Z " fill="#F7C6BF" transform="translate(111,146)"/>
<path d="M0 0 C-1.2179755 3.65392651 -2.14396506 3.95831699 -5.4375 5.75 C-6.64212891 6.42289062 -6.64212891 6.42289062 -7.87109375 7.109375 C-8.92490234 7.55023438 -8.92490234 7.55023438 -10 8 C-10.66 7.67 -11.32 7.34 -12 7 C-10.75510676 4.51021351 -9.47027084 3.8440158 -7.125 2.375 C-6.42632812 1.92898437 -5.72765625 1.48296875 -5.0078125 1.0234375 C-3 0 -3 0 0 0 Z " fill="#FAD6D4" transform="translate(252,97)"/>
<path d="M0 0 C-0.66 1.32 -1.32 2.64 -2 4 C-2 3.01 -2 2.02 -2 1 C-6.10958767 2.45044271 -9.43258745 4.51110752 -13 7 C-11.60415208 3.62670085 -10.07634389 1.95767338 -7 0 C-3.86650268 -1.04449911 -3.01031744 -0.93423645 0 0 Z " fill="#FBC5C7" transform="translate(341,91)"/>
<path d="M0 0 C0.66 1.32 1.32 2.64 2 4 C0.88625 3.79375 -0.2275 3.5875 -1.375 3.375 C-2.57125 3.25125 -3.7675 3.1275 -5 3 C-5.66 3.66 -6.32 4.32 -7 5 C-7.99 4.67 -8.98 4.34 -10 4 C-6.58908673 0.88145073 -4.68377325 -0.53528837 0 0 Z " fill="#FBD2CE" transform="translate(238,98)"/>
<path d="M0 0 C0.556875 0.226875 1.11375 0.45375 1.6875 0.6875 C1.6875 3.3275 1.6875 5.9675 1.6875 8.6875 C1.0275 8.6875 0.3675 8.6875 -0.3125 8.6875 C-0.3125 6.3775 -0.3125 4.0675 -0.3125 1.6875 C-1.3025 1.6875 -2.2925 1.6875 -3.3125 1.6875 C-3.3125 2.3475 -3.3125 3.0075 -3.3125 3.6875 C-4.6325 3.3575 -5.9525 3.0275 -7.3125 2.6875 C-2.88173077 -0.38942308 -2.88173077 -0.38942308 0 0 Z " fill="#F7B7B5" transform="translate(226.3125,95.3125)"/>
<path d="M0 0 C0.33 0.99 0.66 1.98 1 3 C1.99 3.33 2.98 3.66 4 4 C3.34 4.66 2.68 5.32 2 6 C0.68 6 -0.64 6 -2 6 C-1.125 1.125 -1.125 1.125 0 0 Z " fill="#F8CBCA" transform="translate(213,126)"/>
<path d="M0 0 C10.15317287 -0.63019694 10.15317287 -0.63019694 13.6875 2 C14.120625 2.66 14.55375 3.32 15 4 C14.195625 3.690625 13.39125 3.38125 12.5625 3.0625 C8.37750913 1.81434483 4.33693899 1.3662304 0 1 C0 0.67 0 0.34 0 0 Z " fill="#F8C9C8" transform="translate(280,94)"/>
<path d="M0 0 C0.99 0.66 1.98 1.32 3 2 C0.03 4.475 0.03 4.475 -3 7 C-3.33 5.68 -3.66 4.36 -4 3 C-3.01 2.67 -2.02 2.34 -1 2 C-0.67 1.34 -0.34 0.68 0 0 Z " fill="#FBDDDD" transform="translate(321,120)"/>
<path d="M0 0 C1.98 0 3.96 0 6 0 C4.66666667 1.33333333 3.33333333 2.66666667 2 4 C1.35232207 6.57061311 1.35232207 6.57061311 1 9 C0.67 9 0.34 9 0 9 C0 6.03 0 3.06 0 0 Z " fill="#F6CCC8" transform="translate(226,108)"/>
<path d="M0 0 C0.66 0 1.32 0 2 0 C2.1546875 1.423125 2.1546875 1.423125 2.3125 2.875 C2.68539295 6.29107501 2.68539295 6.29107501 6 8 C4.68 8.33 3.36 8.66 2 9 C0 3.375 0 3.375 0 0 Z " fill="#F8C4C8" transform="translate(311,120)"/>
<path d="M0 0 C2.0625 0.4375 2.0625 0.4375 4 1 C3.01 1 2.02 1 1 1 C0.773125 1.639375 0.54625 2.27875 0.3125 2.9375 C-1 5 -1 5 -3.625 5.75 C-4.800625 5.87375 -4.800625 5.87375 -6 6 C-4 4 -2 2 0 0 Z " fill="#FCCCCE" transform="translate(311,94)"/>
<path d="M0 0 C0.66 0.33 1.32 0.66 2 1 C1.34 3.97 0.68 6.94 0 10 C-2 6 -2 6 -3 3 C-2.01 2.01 -1.02 1.02 0 0 Z " fill="#F7C9CA" transform="translate(347,80)"/>
<path d="M0 0 C0.66 0.33 1.32 0.66 2 1 C0.515 3.475 0.515 3.475 -1 6 C-0.01 6.33 0.98 6.66 2 7 C0.35 6.67 -1.3 6.34 -3 6 C-1.125 1.125 -1.125 1.125 0 0 Z " fill="#F4C0C2" transform="translate(340,103)"/>
</svg>
