<?xml version="1.0" encoding="UTF-8"?>
<svg xmlns="http://www.w3.org/2000/svg" xmlns:xlink="http://www.w3.org/1999/xlink" width="160px" height="50px" viewBox="0 0 160 50" version="1.1">
<g id="surface1">
<path style=" stroke:none;fill-rule:nonzero;fill:rgb(89.803922%,79.215686%,75.294118%);fill-opacity:1;" d="M 29.449219 10.992188 C 29.675781 10.992188 29.898438 10.988281 30.128906 10.988281 C 30.867188 10.984375 31.605469 10.984375 32.339844 10.984375 C 32.855469 10.980469 33.371094 10.980469 33.886719 10.976562 C 34.960938 10.976562 36.039062 10.972656 37.117188 10.972656 C 38.496094 10.972656 39.875 10.96875 41.253906 10.960938 C 42.3125 10.957031 43.375 10.953125 44.4375 10.953125 C 44.945312 10.953125 45.453125 10.953125 45.964844 10.949219 C 46.675781 10.945312 47.386719 10.945312 48.097656 10.949219 C 48.5 10.949219 48.90625 10.945312 49.320312 10.945312 C 50.585938 11.082031 51.121094 11.355469 52.023438 11.980469 C 52.980469 13.066406 52.785156 14.375 52.789062 15.609375 C 52.792969 15.96875 52.792969 15.96875 52.796875 16.335938 C 52.796875 16.84375 52.800781 17.351562 52.800781 17.855469 C 52.800781 18.628906 52.8125 19.402344 52.824219 20.175781 C 52.828125 20.671875 52.828125 21.164062 52.828125 21.65625 C 52.835938 21.886719 52.839844 22.117188 52.84375 22.355469 C 52.832031 23.78125 52.578125 24.648438 51.371094 25.804688 C 49.636719 26.476562 47.417969 26.40625 45.480469 26.496094 C 45.640625 27.867188 45.640625 27.867188 45.808594 29.261719 C 46.457031 29.261719 47.101562 29.261719 47.769531 29.261719 C 48.855469 29.636719 48.855469 29.636719 49.734375 30.183594 C 50.019531 30.933594 50.019531 30.933594 50.0625 31.566406 C 48.941406 31.832031 48.109375 31.816406 46.925781 31.800781 C 46.707031 31.800781 46.492188 31.796875 46.269531 31.796875 C 45.550781 31.789062 44.832031 31.777344 44.117188 31.769531 C 43.621094 31.765625 43.121094 31.757812 42.625 31.753906 C 41.316406 31.738281 40.007812 31.722656 38.699219 31.707031 C 37.363281 31.691406 36.027344 31.675781 34.691406 31.660156 C 32.070312 31.628906 29.449219 31.597656 26.832031 31.566406 C 27.101562 30.238281 27.101562 30.238281 27.605469 29.765625 C 28.640625 29.234375 29.585938 29.238281 30.816406 29.25 C 31.261719 29.25 31.261719 29.25 31.710938 29.253906 C 31.9375 29.257812 32.160156 29.261719 32.394531 29.261719 C 32.378906 29.082031 32.367188 28.898438 32.355469 28.710938 C 32.394531 28.109375 32.394531 28.109375 33.007812 27.691406 C 33.703125 27.417969 33.703125 27.417969 34.355469 27.417969 C 34.246094 27.113281 34.140625 26.8125 34.027344 26.496094 C 33.394531 26.480469 33.394531 26.480469 32.75 26.464844 C 32.1875 26.445312 31.625 26.429688 31.0625 26.410156 C 30.785156 26.402344 30.507812 26.398438 30.222656 26.390625 C 26.140625 26.257812 26.140625 26.257812 24.90625 25.359375 C 24.308594 24.585938 24.167969 23.964844 24.15625 23.101562 C 24.152344 22.878906 24.144531 22.65625 24.140625 22.429688 C 24.140625 22.191406 24.136719 21.953125 24.132812 21.703125 C 24.132812 21.457031 24.128906 21.210938 24.125 20.957031 C 24.121094 20.4375 24.117188 19.914062 24.117188 19.394531 C 24.109375 18.597656 24.097656 17.800781 24.082031 17.003906 C 24.078125 16.496094 24.074219 15.992188 24.074219 15.484375 C 24.066406 15.246094 24.0625 15.007812 24.054688 14.761719 C 24.0625 13.425781 24.15625 12.542969 25.519531 11.519531 C 26.84375 11.042969 27.976562 11 29.449219 10.992188 Z M 26.375 12.378906 C 25.757812 12.996094 25.683594 13.304688 25.683594 14.054688 C 25.679688 14.28125 25.679688 14.511719 25.675781 14.746094 C 25.679688 14.992188 25.683594 15.238281 25.6875 15.488281 C 25.6875 15.742188 25.683594 15.996094 25.683594 16.253906 C 25.683594 16.789062 25.6875 17.324219 25.695312 17.855469 C 25.707031 18.675781 25.703125 19.496094 25.699219 20.3125 C 25.699219 20.832031 25.703125 21.351562 25.707031 21.867188 C 25.707031 22.113281 25.703125 22.359375 25.703125 22.613281 C 25.707031 22.839844 25.710938 23.066406 25.714844 23.300781 C 25.71875 23.503906 25.71875 23.703125 25.722656 23.910156 C 25.875 24.535156 26.113281 24.742188 26.832031 25.113281 C 27.769531 25.214844 27.769531 25.214844 28.835938 25.191406 C 29.425781 25.1875 29.425781 25.1875 30.023438 25.1875 C 30.433594 25.183594 30.84375 25.175781 31.269531 25.171875 C 31.679688 25.171875 32.089844 25.171875 32.515625 25.167969 C 34.476562 25.230469 34.476562 25.230469 36.320312 24.886719 C 37.472656 24.847656 38.484375 24.875 39.589844 25.113281 C 39.726562 24.933594 39.859375 24.753906 40 24.566406 C 40.605469 23.929688 40.855469 23.730469 41.882812 23.503906 C 42.84375 23.402344 42.84375 23.402344 43.84375 23.503906 C 44.6875 24.003906 45.3125 24.417969 45.808594 25.113281 C 46.496094 25.132812 47.183594 25.148438 47.875 25.160156 C 48.257812 25.167969 48.640625 25.175781 49.035156 25.183594 C 50.035156 25.179688 50.035156 25.179688 50.605469 24.828125 C 51.144531 24.332031 51.179688 24.054688 51.210938 23.433594 C 51.226562 23.132812 51.226562 23.132812 51.246094 22.828125 C 51.253906 22.613281 51.261719 22.398438 51.269531 22.175781 C 51.285156 21.84375 51.285156 21.84375 51.300781 21.503906 C 51.328125 20.789062 51.351562 20.070312 51.371094 19.355469 C 51.382812 18.992188 51.382812 18.992188 51.390625 18.625 C 51.410156 17.910156 51.421875 17.199219 51.429688 16.488281 C 51.4375 16.269531 51.441406 16.050781 51.445312 15.824219 C 51.445312 14.609375 51.355469 13.578125 50.714844 12.441406 C 49.53125 11.886719 48.980469 11.921875 47.570312 11.914062 C 47.351562 11.914062 47.132812 11.910156 46.910156 11.910156 C 46.1875 11.90625 45.46875 11.90625 44.746094 11.902344 C 44.242188 11.902344 43.742188 11.902344 43.242188 11.898438 C 42.1875 11.898438 41.136719 11.894531 40.085938 11.894531 C 38.738281 11.894531 37.390625 11.890625 36.046875 11.882812 C 35.007812 11.875 33.972656 11.875 32.9375 11.875 C 32.441406 11.875 31.945312 11.875 31.445312 11.871094 C 30.753906 11.867188 30.058594 11.867188 29.363281 11.871094 C 28.96875 11.867188 28.574219 11.867188 28.164062 11.867188 C 27.136719 11.929688 27.136719 11.929688 26.375 12.378906 Z M 41.617188 24.699219 C 41.136719 25.117188 41.136719 25.117188 41.308594 25.71875 C 41.480469 26.25 41.480469 26.25 41.882812 26.496094 C 42.648438 26.429688 43.410156 26.355469 44.171875 26.265625 C 44.226562 25.59375 44.226562 25.59375 44.171875 24.886719 C 43.957031 24.734375 43.738281 24.582031 43.515625 24.425781 C 42.273438 24.339844 42.273438 24.339844 41.617188 24.699219 Z M 36.320312 26.035156 C 35.894531 26.28125 35.894531 26.28125 35.972656 26.859375 C 35.976562 27.042969 35.984375 27.226562 35.992188 27.417969 C 36.753906 27.199219 36.753906 27.199219 37.300781 26.496094 C 37.410156 26.800781 37.515625 27.105469 37.628906 27.417969 C 38.058594 27.417969 38.492188 27.417969 38.9375 27.417969 C 38.828125 27.039062 38.71875 26.660156 38.609375 26.265625 C 37.847656 26.179688 37.085938 26.101562 36.320312 26.035156 Z M 40.574219 28.570312 C 40.574219 28.648438 40.574219 28.722656 40.574219 28.800781 C 41.867188 28.878906 43.164062 28.953125 44.5 29.03125 C 44.023438 27.976562 44.023438 27.976562 43.515625 27.648438 C 42.039062 27.507812 41.503906 27.769531 40.574219 28.570312 Z M 106.992188 14.285156 C 107.417969 14.496094 107.839844 14.707031 108.261719 14.917969 C 108.496094 15.035156 108.734375 15.15625 108.976562 15.277344 C 109.640625 15.683594 109.929688 16.019531 110.265625 16.589844 C 110.105469 16.699219 109.941406 16.808594 109.777344 16.917969 C 109.566406 17.0625 109.355469 17.207031 109.140625 17.351562 C 108.933594 17.496094 108.722656 17.636719 108.507812 17.78125 C 107.902344 18.203125 107.902344 18.203125 107.648438 18.894531 C 107.90625 18.878906 108.160156 18.867188 108.425781 18.851562 C 108.851562 18.871094 108.851562 18.871094 109.285156 18.894531 C 110.117188 19.773438 109.992188 20.453125 109.929688 21.46875 C 109.917969 21.742188 109.917969 21.742188 109.90625 22.023438 C 109.878906 22.605469 109.847656 23.191406 109.816406 23.777344 C 109.796875 24.171875 109.777344 24.570312 109.757812 24.964844 C 109.714844 25.9375 109.664062 26.910156 109.613281 27.878906 C 107.882812 27.878906 106.15625 27.878906 104.375 27.878906 C 104.375 25.675781 104.375 23.46875 104.375 21.199219 C 104.050781 21.199219 103.726562 21.199219 103.394531 21.199219 C 103.347656 21.332031 103.296875 21.46875 103.25 21.605469 C 102.460938 23.730469 101.453125 25.800781 100.449219 27.878906 C 98.832031 27.878906 97.210938 27.878906 95.542969 27.878906 C 94.664062 26.390625 93.90625 24.886719 93.207031 23.351562 C 92.84375 22.574219 92.457031 21.875 91.839844 21.183594 C 91.289062 20.507812 91.289062 20.507812 91.289062 19.125 C 93.015625 19.046875 94.742188 18.972656 96.523438 18.894531 C 97.628906 20.707031 97.628906 20.707031 97.894531 21.644531 C 97.945312 21.824219 97.996094 22 98.050781 22.183594 C 98.105469 22.378906 98.105469 22.378906 98.160156 22.582031 C 98.265625 22.582031 98.375 22.582031 98.488281 22.582031 C 98.527344 22.390625 98.566406 22.199219 98.605469 22 C 98.660156 21.75 98.714844 21.5 98.773438 21.242188 C 98.824219 20.992188 98.878906 20.746094 98.933594 20.488281 C 99.140625 19.816406 99.140625 19.816406 99.796875 19.125 C 100.71875 19.007812 100.71875 19.007812 101.800781 18.964844 C 102.335938 18.941406 102.335938 18.941406 102.886719 18.921875 C 103.300781 18.90625 103.300781 18.90625 103.722656 18.894531 C 103.882812 19.234375 103.882812 19.234375 104.050781 19.585938 C 105.019531 19.355469 105.992188 19.128906 106.992188 18.894531 C 106.777344 18.75 106.5625 18.609375 106.339844 18.460938 C 105.683594 17.972656 105.683594 17.972656 105.683594 17.511719 C 105.46875 17.511719 105.253906 17.511719 105.03125 17.511719 C 104.5 17.050781 104.5 17.050781 104.050781 16.589844 C 104.5 15.851562 105.007812 15.425781 105.890625 14.917969 C 106.097656 14.800781 106.304688 14.679688 106.515625 14.554688 C 106.753906 14.421875 106.753906 14.421875 106.992188 14.285156 Z M 63.457031 15.625 C 63.859375 15.621094 63.859375 15.621094 64.273438 15.617188 C 64.664062 15.617188 64.664062 15.617188 65.058594 15.613281 C 65.296875 15.613281 65.535156 15.613281 65.78125 15.613281 C 66.421875 15.667969 66.421875 15.667969 67.402344 16.128906 C 67.714844 16.636719 67.714844 16.636719 67.953125 17.238281 C 68.039062 17.433594 68.121094 17.628906 68.203125 17.832031 C 68.386719 18.4375 68.417969 18.972656 68.382812 19.585938 C 68.601562 19.585938 68.816406 19.585938 69.039062 19.585938 C 69.097656 19.332031 69.097656 19.332031 69.160156 19.070312 C 69.214844 18.847656 69.269531 18.621094 69.324219 18.390625 C 69.378906 18.167969 69.429688 17.945312 69.484375 17.71875 C 69.6875 17.066406 69.9375 16.5 70.347656 15.898438 C 71.390625 15.53125 72.515625 15.644531 73.660156 15.652344 C 73.90625 15.65625 74.152344 15.65625 74.410156 15.65625 C 75.019531 15.660156 75.628906 15.664062 76.238281 15.667969 C 76.828125 16.390625 77 16.976562 77.085938 17.808594 C 77.113281 18.039062 77.140625 18.269531 77.164062 18.507812 C 77.191406 18.75 77.214844 18.992188 77.238281 19.238281 C 77.289062 19.71875 77.339844 20.195312 77.394531 20.671875 C 77.414062 20.882812 77.4375 21.09375 77.460938 21.3125 C 77.539062 21.832031 77.671875 22.308594 77.875 22.8125 C 77.949219 22.65625 78.023438 22.503906 78.101562 22.347656 C 78.746094 21.121094 79.269531 20.148438 80.816406 19.355469 C 83.019531 18.773438 85.359375 18.71875 87.6875 18.894531 C 88.835938 19.28125 88.835938 19.28125 89.652344 19.816406 C 89.957031 20 90.257812 20.1875 90.574219 20.378906 C 91.882812 21.457031 91.726562 22.820312 91.707031 24.191406 C 91.527344 25.554688 90.753906 26.507812 89.304688 27.40625 C 87.816406 28.140625 86.5625 28.160156 84.804688 28.167969 C 84.578125 28.171875 84.347656 28.175781 84.113281 28.183594 C 82.230469 28.191406 80.910156 27.925781 79.542969 27 C 79.304688 26.785156 79.304688 26.785156 79.058594 26.570312 C 78.894531 26.425781 78.730469 26.28125 78.5625 26.136719 C 78.441406 26.027344 78.324219 25.917969 78.199219 25.804688 C 78.207031 26.105469 78.214844 26.40625 78.222656 26.714844 C 78.226562 27.027344 78.222656 27.339844 78.199219 27.648438 C 77.875 27.878906 77.875 27.878906 76.769531 27.902344 C 76.3125 27.902344 75.855469 27.898438 75.398438 27.894531 C 75.167969 27.894531 74.933594 27.890625 74.695312 27.890625 C 74.117188 27.890625 73.542969 27.882812 72.964844 27.878906 C 72.949219 27.738281 72.933594 27.597656 72.914062 27.449219 C 72.839844 26.804688 72.757812 26.164062 72.679688 25.519531 C 72.652344 25.296875 72.628906 25.074219 72.601562 24.84375 C 72.574219 24.628906 72.546875 24.410156 72.519531 24.191406 C 72.492188 23.992188 72.46875 23.792969 72.445312 23.589844 C 72.304688 23.023438 72.058594 22.617188 71.65625 22.121094 C 71.589844 22.414062 71.523438 22.707031 71.453125 23.011719 C 71.363281 23.394531 71.273438 23.78125 71.1875 24.164062 C 71.140625 24.359375 71.097656 24.550781 71.050781 24.753906 C 71.007812 24.9375 70.964844 25.125 70.921875 25.316406 C 70.863281 25.570312 70.863281 25.570312 70.800781 25.835938 C 70.675781 26.265625 70.675781 26.265625 70.347656 26.726562 C 68.945312 26.726562 67.539062 26.726562 66.09375 26.726562 C 65.882812 26.109375 65.882812 26.109375 65.664062 25.476562 C 65.234375 24.253906 64.71875 23.074219 64.132812 21.890625 C 63.839844 22.605469 63.742188 23.269531 63.699219 24.011719 C 63.6875 24.234375 63.671875 24.460938 63.660156 24.695312 C 63.644531 24.929688 63.632812 25.160156 63.621094 25.402344 C 63.605469 25.640625 63.589844 25.878906 63.578125 26.125 C 63.542969 26.707031 63.507812 27.292969 63.476562 27.878906 C 61.855469 27.878906 60.238281 27.878906 58.570312 27.878906 C 59.171875 20.316406 59.171875 20.316406 59.550781 17.625 C 59.585938 17.359375 59.585938 17.359375 59.621094 17.089844 C 59.679688 16.691406 59.773438 16.292969 59.878906 15.898438 C 60.992188 15.507812 62.230469 15.625 63.457031 15.625 Z M 63.804688 19.816406 C 64.132812 20.738281 64.132812 20.738281 64.132812 20.738281 Z M 71.984375 20.507812 C 72.3125 21.429688 72.3125 21.429688 72.3125 21.429688 Z M 84.089844 20.507812 C 83.671875 21.546875 83.703125 22.542969 83.703125 23.617188 C 83.699219 23.8125 83.695312 24.011719 83.6875 24.214844 C 83.6875 24.40625 83.6875 24.59375 83.6875 24.792969 C 83.6875 24.964844 83.683594 25.136719 83.683594 25.316406 C 83.773438 25.871094 84.023438 26.246094 84.417969 26.726562 C 84.847656 26.652344 85.28125 26.574219 85.726562 26.496094 C 86.117188 25.628906 86.109375 24.796875 86.113281 23.890625 C 86.121094 23.449219 86.121094 23.449219 86.128906 23 C 86.050781 22.082031 85.804688 21.375 85.398438 20.507812 C 84.96875 20.507812 84.535156 20.507812 84.089844 20.507812 Z M 115.195312 15.597656 C 115.5625 15.589844 115.929688 15.582031 116.304688 15.574219 C 118.601562 15.5625 120.097656 15.710938 122.046875 16.589844 C 123.878906 17.980469 124.097656 19.328125 124.007812 21.199219 C 123.40625 22.886719 122.511719 24.171875 120.410156 25.113281 C 120.207031 25.214844 120.003906 25.316406 119.796875 25.417969 C 118.691406 25.667969 117.640625 25.601562 116.484375 25.574219 C 116.375 26.335938 116.265625 27.097656 116.15625 27.878906 C 114.429688 27.878906 112.699219 27.878906 110.921875 27.878906 C 110.867188 26.691406 110.8125 25.503906 110.761719 24.316406 C 110.746094 23.914062 110.726562 23.511719 110.707031 23.109375 C 110.476562 18.207031 110.476562 18.207031 110.921875 15.898438 C 111.761719 15.304688 114.066406 15.601562 115.195312 15.597656 Z M 116.484375 18.203125 C 116.320312 20.597656 116.320312 20.597656 116.15625 23.042969 C 116.695312 22.964844 117.234375 22.890625 117.792969 22.8125 C 118.585938 21.972656 118.542969 21.34375 118.527344 20.378906 C 118.53125 20.21875 118.53125 20.0625 118.535156 19.898438 C 118.566406 18.945312 118.566406 18.945312 117.792969 18.203125 C 117.359375 18.203125 116.925781 18.203125 116.484375 18.203125 Z M 134.152344 16.589844 C 134.257812 16.664062 134.367188 16.742188 134.480469 16.820312 C 134.449219 17.210938 134.398438 17.597656 134.335938 17.988281 C 134.300781 18.199219 134.269531 18.410156 134.234375 18.628906 C 134.207031 18.792969 134.179688 18.957031 134.152344 19.125 C 133.941406 19.046875 133.734375 18.972656 133.515625 18.894531 C 132.183594 18.585938 130.960938 18.625 129.570312 18.664062 C 129.617188 19.105469 129.617188 19.105469 129.898438 19.585938 C 130.59375 19.957031 130.59375 19.957031 131.453125 20.261719 C 133.046875 20.902344 134.308594 21.503906 135.234375 22.652344 C 135.773438 24.140625 135.589844 25.226562 134.546875 26.550781 C 133.746094 27.375 132.859375 27.800781 131.535156 28.109375 C 129.234375 28.246094 127.210938 28.261719 125.148438 27.480469 C 124.53125 27.109375 124.285156 26.804688 124.007812 26.265625 C 124.019531 25.632812 124.1875 25.054688 124.335938 24.425781 C 124.875 24.5 125.414062 24.574219 125.972656 24.65625 C 125.972656 24.804688 125.972656 24.957031 125.972656 25.113281 C 127.265625 25.113281 128.5625 25.113281 129.898438 25.113281 C 129.898438 24.734375 129.898438 24.355469 129.898438 23.964844 C 129.628906 23.914062 129.359375 23.867188 129.078125 23.820312 C 127.230469 23.308594 125.605469 22.542969 124.5 21.355469 C 123.710938 19.992188 123.789062 18.957031 124.375 17.554688 C 125.304688 16.441406 126.488281 15.964844 128.199219 15.582031 C 130.335938 15.257812 132.398438 15.703125 134.152344 16.589844 Z M 35.011719 16.820312 C 36.527344 17 37.640625 17.1875 39.039062 17.582031 C 39.554688 17.726562 39.554688 17.726562 40.078125 17.867188 C 40.898438 18.203125 40.898438 18.203125 41.179688 18.703125 C 41.195312 18.839844 41.210938 18.980469 41.226562 19.125 C 40.4375 19.363281 39.648438 19.597656 38.855469 19.828125 C 38.632812 19.898438 38.410156 19.964844 38.179688 20.035156 C 36.886719 20.410156 36.40625 20.523438 35.011719 20.277344 C 35.011719 19.136719 35.011719 17.996094 35.011719 16.820312 Z M 41.882812 25.113281 C 42.097656 25.113281 42.3125 25.113281 42.535156 25.113281 C 42.535156 25.265625 42.535156 25.417969 42.535156 25.574219 C 42.320312 25.574219 42.105469 25.574219 41.882812 25.574219 C 41.882812 25.425781 41.882812 25.273438 41.882812 25.113281 Z M 41.882812 25.113281 "/>
</g>
</svg>
